<svg width="24" height="24" fill="none" xmlns="http://www.w3.org/2000/svg"><path d="M14.677 1.03c.202.167.404.343.614.502.245.192.394.43.473.71.07.263.175.494.403.686.246.207.333.502.35.805.01.168 0 .335 0 .503v.255a.53.53 0 00.097.319c.08.112.21.104.325.112.026 0 .052.024.061.047 0 .024-.009.056-.026.072-.15.104-.307.096-.482.048-.114-.032-.176.04-.158.144.017.127.088.239.149.35.131.248.184.503.07.774-.026.072 0 .184-.131.184-.07 0-.053-.136-.158-.12-.035.287.009.55.219.79.087.095.052.151-.096.207-.027.008-.07 0-.088.016-.158.167-.377.167-.587.175-.088-.08-.202-.056-.307-.064-.088-.008-.132-.071-.14-.143-.01-.08.008-.168.017-.247.018-.112.044-.224.053-.327.008-.088-.053-.112-.15-.096-.034.008-.078-.032-.113-.056-.035-.032-.07-.12-.114-.016-.14.343-.272.678-.395 1.029-.157.439 0 .798.36 1.093.175.135.341.279.517.414.07.056.149.104.245.112.08.088.158.175.237.255.394.415.465.917.193 1.404-.07.12-.167.24-.263.343a.787.787 0 00-.167.247c-.175.008-.28.12-.342.247-.219.447-.438.901-.648 1.356-.044.096 0 .167.114.183l.456.072c.192.032.236.072.219.2-.01.103-.053.127-.237.12a11.303 11.303 0 00-.552-.017c-.08 0-.167.008-.193.088-.035.088 0 .175.079.223.088.056.175.112.28.144.176.064.35.104.544.111a.19.19 0 01.184.16c.052.295.052.59 0 .885a.255.255 0 01-.193.215c-.149.04-.29.096-.447.112-.36.056-.456.008-.596-.303-.096-.207-.22-.367-.5-.383.027.064.062.128.062.184 0 .726-.15 1.427-.561 2.057l-.631.981c-.14.224-.255.447-.404.662-.14.208-.157.383.027.575.219.223.271.494.21.789a5.72 5.72 0 00-.061 1.595c.009.112-.035.168-.14.175-.14.016-.228-.031-.246-.135-.017-.112-.017-.223-.026-.335-.018-.32-.035-.638-.105-.95-.114.009-.158.065-.176.136a28.24 28.24 0 00-.245.814c-.026.08-.035.167-.061.247-.044.136-.132.223-.29.232-.201 0-.403.007-.604 0-.228-.009-.377-.128-.43-.328-.053-.175-.07-.358-.105-.542-.035-.191.035-.35.237-.415.227-.071.306-.215.324-.414.009-.056.035-.112.035-.168.009-.438.22-.805.447-1.18a8.802 8.802 0 001.166-3.182c.061-.407.122-.806.166-1.212.027-.303-.087-.503-.385-.654-1-.527-1.973-1.117-3.042-1.516a1.585 1.585 0 01-.657-.446c-.088-.104-.167-.208-.176-.343-.008-.144-.035-.271-.149-.39-.043-.049-.035-.137-.026-.2a.886.886 0 01.43-.718c.64-.39 1.27-.798 1.954-1.133.57-.27 1.113-.606 1.666-.909.07-.04.096-.103.087-.183-.026-.152-.052-.303-.07-.455a1.9 1.9 0 010-.63.536.536 0 00-.193-.534 1.206 1.206 0 01-.245-.303c-.114-.208-.061-.383.149-.519.236-.151.482-.303.736-.438.184-.104.35-.231.517-.351.254-.184.342-.423.325-.71-.01-.112-.044-.223-.053-.335-.035-.39-.228-.662-.657-.773a.608.608 0 01-.167-.072c-.22-.112-.237-.152-.167-.407.036-.128.027-.271.176-.375.044-.032.052-.127.061-.191.009-.104.07-.144.176-.16.105-.016.21-.048.324-.071-.018-.048-.026-.088-.044-.128-.009-.032-.044-.096.026-.08.123.032.21-.008.29-.072.096-.071.192-.143.298-.207.298-.167.64-.319 1.051-.223zm-4.347 8.996c.272 0 .543.024.806-.008.465-.048.92-.064 1.385-.056.123 0 .245 0 .368-.016.08-.008.097-.08.07-.128-.096-.175-.21-.343-.315-.51-.07-.112-.132-.136-.263-.104-.088.024-.175.056-.263.088-.552.207-1.104.423-1.657.638-.052.008-.122.016-.131.096zm4.672-5.503c.14-.287.271-.495.455-.662.202-.183.237-.415.22-.654-.01-.056-.018-.112-.088-.128-.07-.008-.114.032-.15.072-.06.08-.113.168-.166.247a1.297 1.297 0 01-.333.343c-.079.056-.245.032-.245.16 0 .088.061.183.105.271.044.096.105.191.202.35zm-3.577 7.44c.167.128.316.232.465.352.158.127.307.27.465.406.043.04.131.016.14-.04.026-.19.061-.382.088-.582.008-.08-.044-.127-.123-.151-.193-.056-.71-.048-1.035.016z" fill="#D93939"/></svg>