<svg width="24" height="24" fill="none" xmlns="http://www.w3.org/2000/svg"><path d="M13.516 3.503l.156.094.179-.028 1.752-.268 1.05 1.429.107.146.176.043 1.722.423.423 1.722.043.176.146.107 1.429 1.05-.268 1.752-.027.18.093.155.919 1.516-.919 1.516-.093.156.027.179.268 1.752-1.429 1.05-.146.107-.043.176-.423 1.722-1.722.423-.176.043-.107.146-1.05 1.429-1.752-.268-.18-.027-.155.093-1.516.919-1.516-.919-.156-.093-.179.027-1.752.268-1.05-1.429-.107-.146-.176-.043-1.722-.423-.423-1.722-.043-.176-.146-.107-1.429-1.05.268-1.752.028-.18-.094-.155L2.584 12l.919-1.516.094-.156-.028-.179-.268-1.752 1.429-1.05.146-.107.043-.176.423-1.722 1.722-.423.176-.043.107-.146 1.05-1.43 1.752.268.18.028.155-.094L12 2.584l1.516.919z" fill="#D93939" stroke="#D93939"/><path d="M9.056 9.832c0-.395.129-.715.386-.958.258-.243.604-.365 1.037-.365.44 0 .787.122 1.042.365.255.24.382.567.382.98v.316c0 .396-.127.714-.382.954s-.6.36-1.033.36c-.43 0-.778-.118-1.041-.356-.261-.24-.391-.568-.391-.984v-.312zm.953.338c0 .153.043.277.128.374a.45.45 0 00.351.14c.308 0 .462-.196.462-.588v-.264a.557.557 0 00-.123-.373.425.425 0 00-.348-.15.433.433 0 00-.342.145.555.555 0 00-.128.387v.33zm2.088 3.261c0-.398.129-.718.386-.958.261-.24.607-.36 1.037-.36.437 0 .784.118 1.042.356.258.237.387.568.387.993v.308c0 .398-.128.717-.383.957s-.6.36-1.037.36c-.43 0-.777-.118-1.041-.355-.26-.24-.391-.568-.391-.984v-.317zm.949.339c0 .137.047.259.14.364a.447.447 0 00.343.154c.284 0 .438-.135.462-.404l.004-.453a.535.535 0 00-.127-.373.438.438 0 00-.348-.145.442.442 0 00-.338.136.528.528 0 00-.136.36v.36zm-2.276.751l-.69-.347 3.124-5.001.69.347-3.124 5.001z" fill="#3F2B34"/></svg>